<svg width="36" height="36" viewBox="0 0 36 36" fill="none" xmlns="http://www.w3.org/2000/svg">
<path d="M12.166 9.25V18" stroke="#859990" stroke-width="2" stroke-linecap="round" stroke-linejoin="round"/>
<path d="M22.375 9.25V18" stroke="#859990" stroke-width="2" stroke-linecap="round" stroke-linejoin="round"/>
<path d="M3.41602 18H31.9994" stroke="#859990" stroke-width="2" stroke-linecap="round" stroke-linejoin="round"/>
<path d="M26.7493 26.75H31.1243C31.1243 26.75 31.8535 24.2708 32.291 22.6667C32.4368 22.0833 32.5827 21.5 32.5827 20.9167C32.5827 20.3333 32.4368 19.75 32.291 19.1667L30.2493 11.875C29.8118 10.4167 28.3535 9.25 26.7493 9.25H6.33268C5.55913 9.25 4.81727 9.55729 4.27029 10.1043C3.72331 10.6513 3.41602 11.3931 3.41602 12.1667V26.75H7.79102" stroke="#859990" stroke-width="2" stroke-linecap="round" stroke-linejoin="round"/>
<path d="M10.7077 29.6666C12.3185 29.6666 13.6243 28.3607 13.6243 26.7499C13.6243 25.1391 12.3185 23.8333 10.7077 23.8333C9.09685 23.8333 7.79102 25.1391 7.79102 26.7499C7.79102 28.3607 9.09685 29.6666 10.7077 29.6666Z" stroke="#859990" stroke-width="2" stroke-linecap="round" stroke-linejoin="round"/>
<path d="M13.625 26.75H20.9167" stroke="#859990" stroke-width="2" stroke-linecap="round" stroke-linejoin="round"/>
<path d="M23.8327 29.6666C25.4435 29.6666 26.7493 28.3607 26.7493 26.7499C26.7493 25.1391 25.4435 23.8333 23.8327 23.8333C22.2219 23.8333 20.916 25.1391 20.916 26.7499C20.916 28.3607 22.2219 29.6666 23.8327 29.6666Z" stroke="#859990" stroke-width="2" stroke-linecap="round" stroke-linejoin="round"/>
</svg>
