<svg width="30" height="30" viewBox="0 0 30 30" fill="none" xmlns="http://www.w3.org/2000/svg">
<path d="M12.5 15H12.5125" stroke="#859990" stroke-width="2" stroke-linecap="round" stroke-linejoin="round"/>
<path d="M22.5 11.25V7.5C22.5 6.83696 22.2366 6.20107 21.7678 5.73223C21.2989 5.26339 20.663 5 20 5H10C9.33696 5 8.70107 5.26339 8.23223 5.73223C7.76339 6.20107 7.5 6.83696 7.5 7.5V25" stroke="#859990" stroke-width="2" stroke-linecap="round" stroke-linejoin="round"/>
<path d="M2.5 25H12.5" stroke="#859990" stroke-width="2" stroke-linecap="round" stroke-linejoin="round"/>
<path d="M25 21.25V18.75C25 18.087 24.7366 17.4511 24.2678 16.9822C23.7989 16.5134 23.163 16.25 22.5 16.25C21.837 16.25 21.2011 16.5134 20.7322 16.9822C20.2634 17.4511 20 18.087 20 18.75V21.25" stroke="#859990" stroke-width="2" stroke-linecap="round" stroke-linejoin="round"/>
<path d="M26.25 21.25H18.75C18.0596 21.25 17.5 21.8096 17.5 22.5V26.25C17.5 26.9404 18.0596 27.5 18.75 27.5H26.25C26.9404 27.5 27.5 26.9404 27.5 26.25V22.5C27.5 21.8096 26.9404 21.25 26.25 21.25Z" stroke="#859990" stroke-width="2" stroke-linecap="round" stroke-linejoin="round"/>
</svg>
