<svg width="30" height="30" viewBox="0 0 30 30" fill="none" xmlns="http://www.w3.org/2000/svg">
<path d="M12.5 3.75H5C4.30964 3.75 3.75 4.30964 3.75 5V25C3.75 25.6904 4.30964 26.25 5 26.25H12.5C13.1904 26.25 13.75 25.6904 13.75 25V5C13.75 4.30964 13.1904 3.75 12.5 3.75Z" stroke="#859990" stroke-width="2" stroke-linecap="round" stroke-linejoin="round"/>
<path d="M8.75 3.75V26.25" stroke="#859990" stroke-width="2" stroke-linecap="round" stroke-linejoin="round"/>
<path d="M25.5002 23.6249C25.7502 24.2499 25.3752 24.9999 24.7502 25.2499L22.3752 26.1249C21.7502 26.3749 21.0002 25.9999 20.7502 25.3749L13.8752 6.37494C13.6252 5.74994 14.0002 4.99994 14.6252 4.74994L17.0002 3.87494C17.6252 3.62494 18.3752 3.99994 18.6252 4.62494L25.5002 23.6249Z" stroke="#859990" stroke-width="2" stroke-linecap="round" stroke-linejoin="round"/>
</svg>
